<?xml version="1.0" standalone="no"?>
<!DOCTYPE svg PUBLIC "-//W3C//DTD SVG 20010904//EN"
 "http://www.w3.org/TR/2001/REC-SVG-20010904/DTD/svg10.dtd">
<svg version="1.0" xmlns="http://www.w3.org/2000/svg"
 width="900.000000pt" height="900.000000pt" viewBox="0 0 900.000000 900.000000"
 preserveAspectRatio="xMidYMid meet">
<metadata>
Created by potrace 1.14, written by Peter Selinger 2001-2017
</metadata>
<g transform="translate(0.000000,900.000000) scale(0.100000,-0.100000)"
fill="#000000" stroke="none">
<path d="M4385 8153 c-396 -90 -757 -211 -1007 -340 -62 -32 -116 -59 -120
-61 -18 -8 -6 23 30 76 52 77 55 82 43 82 -14 0 -305 -194 -386 -258 -38 -31
-105 -89 -147 -131 -43 -41 -80 -72 -83 -69 -3 2 -1 26 4 52 5 26 5 46 1 44
-4 -2 -52 -45 -106 -96 -120 -113 -263 -268 -312 -339 -45 -64 -67 -77 -58
-33 3 16 9 44 13 62 9 45 -7 31 -73 -65 -84 -122 -161 -251 -210 -351 -40 -81
-44 -86 -45 -55 0 31 -5 24 -51 -66 -124 -244 -248 -610 -322 -951 -101 -467
-123 -1047 -56 -1521 20 -141 48 -285 75 -383 25 -93 27 -90 -72 -90 -151 0
-243 -37 -288 -114 -30 -52 -30 -67 -5 -237 38 -256 90 -474 145 -614 125
-319 377 -554 700 -654 106 -33 261 -61 339 -61 39 0 76 -4 82 -8 6 -4 30 -38
53 -77 207 -342 392 -473 911 -646 133 -44 156 -53 159 -64 1 -5 -3 -13 -11
-17 -7 -3 -33 -16 -58 -28 -120 -59 -222 -187 -264 -332 -9 -31 -16 -67 -16
-81 0 -27 -16 -37 -60 -37 -17 0 -47 -14 -75 -36 l-47 -35 -42 20 c-56 28
-126 27 -212 -3 -100 -34 -191 -82 -199 -105 -7 -22 -18 -27 -92 -36 -41 -5
-62 -15 -105 -51 -91 -77 -129 -178 -98 -260 15 -39 -10 -64 -67 -64 l-43 0 0
69 c0 46 -5 72 -14 80 -9 8 -66 11 -182 9 l-169 -3 -5 -75 -5 -75 -68 -11
c-75 -12 -112 -34 -139 -82 l-18 -32 32 0 c21 0 42 9 61 28 l28 27 2732 3
c1503 1 2746 0 2764 -3 18 -3 46 -17 62 -30 29 -25 81 -34 81 -15 0 25 -33 71
-61 86 -20 10 -70 18 -140 21 l-109 6 0 67 c0 47 -4 71 -15 80 -10 9 -63 11
-194 8 l-179 -3 -17 37 c-9 21 -43 62 -76 91 -53 48 -66 55 -128 66 -55 10
-73 18 -86 37 -17 26 -85 64 -182 100 -83 31 -183 33 -231 4 l-33 -20 -41 35
c-23 19 -51 36 -62 37 -12 1 -28 2 -36 4 -8 1 -21 2 -27 3 -7 1 -13 14 -13 31
0 99 -63 247 -137 324 -55 56 -159 132 -188 138 -11 2 -20 10 -20 17 0 9 43
28 120 54 66 22 134 46 152 53 17 8 34 14 38 14 21 0 277 117 348 160 180 106
283 220 451 493 16 26 20 27 94 27 148 0 378 58 527 132 196 99 376 281 477
483 52 103 82 192 121 365 45 193 67 345 70 469 3 123 -12 153 -97 196 -53 26
-71 29 -178 33 -65 3 -118 8 -118 13 0 5 11 50 24 101 157 606 153 1254 -10
1896 -20 79 -34 145 -31 148 3 3 23 -6 44 -20 42 -29 63 -33 63 -11 0 20 -71
216 -108 297 -28 60 -136 250 -192 335 -26 39 -16 46 41 29 60 -18 73 -12 52
22 -74 118 -308 381 -368 414 -32 18 -1 28 90 28 52 0 96 4 99 9 7 11 -232
193 -356 269 -53 33 -135 79 -182 103 -48 23 -83 46 -79 50 5 4 44 11 88 14
150 11 168 15 154 31 -6 8 -46 35 -88 61 -42 26 -83 52 -91 59 -56 45 -393
202 -546 254 -134 46 -150 61 -77 74 60 11 193 50 193 57 0 7 -55 19 -255 56
-106 19 -191 27 -348 32 -114 3 -208 10 -210 14 -2 8 119 61 223 98 109 39 92
41 -265 36 -291 -4 -369 -8 -544 -31 -112 -14 -207 -28 -211 -31 -3 -2 -38 -9
-76 -15 -38 -6 -79 -14 -91 -17 -50 -12 -27 14 102 112 18 14 18 15 -10 14
-17 -1 -39 -3 -50 -6z m-399 -2708 c111 -8 208 -17 215 -20 8 -2 68 -11 134
-20 332 -41 915 -161 1270 -261 262 -73 458 -125 466 -122 9 3 -61 62 -156
133 -32 24 -3 18 128 -26 135 -45 261 -105 364 -173 37 -24 71 -42 76 -39 9 5
3 65 -10 100 -10 29 66 -66 88 -109 21 -41 39 -43 39 -4 0 89 47 -37 84 -227
44 -220 57 -475 36 -705 l-9 -103 50 -73 c41 -61 129 -250 129 -279 0 -9 -31
-6 -215 23 -384 60 -602 74 -1025 67 -251 -4 -359 -10 -475 -26 -207 -29 -246
-35 -435 -70 -194 -36 -292 -39 -428 -12 -167 34 -321 59 -497 83 -153 20
-212 22 -580 22 -458 0 -569 -8 -1019 -79 -54 -8 -101 -13 -104 -11 -10 11 67
186 117 264 l53 83 2 252 c3 286 15 370 91 607 47 147 182 381 284 492 75 82
196 138 431 197 184 47 548 62 896 36z m-281 -1940 c66 -8 143 -20 170 -26 63
-15 153 -60 182 -91 53 -56 67 -155 37 -245 -30 -88 -207 -336 -266 -372 -48
-30 -135 -69 -193 -87 -54 -17 -96 -19 -425 -19 -349 0 -368 1 -443 23 -179
51 -288 134 -323 245 -10 31 -15 59 -12 63 4 3 17 -1 30 -9 12 -9 52 -25 88
-38 58 -19 84 -22 237 -21 172 2 320 12 483 33 102 13 391 65 475 84 l60 15
-75 -6 c-41 -3 -102 -10 -135 -14 -185 -28 -355 -41 -624 -47 -191 -4 -232 -2
-285 12 -91 26 -152 60 -217 124 -55 53 -59 60 -59 103 0 26 4 58 9 71 l9 24
83 -14 c46 -8 167 -20 268 -26 l185 -12 9 -35 c4 -20 18 -49 31 -65 22 -27 24
-28 40 -12 10 9 26 17 36 17 10 0 20 4 22 9 4 13 128 26 128 15 0 -5 -31 -29
-70 -53 -38 -23 -70 -46 -70 -51 0 -4 22 -17 49 -29 73 -31 210 -30 284 3 81
35 167 134 167 191 0 28 121 20 224 -16 48 -16 90 -28 92 -26 3 2 -23 21 -56
41 -61 38 -75 56 -42 56 9 0 24 5 32 11 11 7 -22 9 -115 4 -156 -7 -758 -7
-835 0 -232 22 -420 51 -420 64 0 4 19 19 43 34 73 48 155 68 372 91 92 10
704 -4 820 -19z m2630 -10 c86 -22 210 -85 194 -98 -11 -10 -107 -27 -229 -41
-74 -9 -153 -18 -175 -21 -58 -6 -719 -6 -860 1 -86 4 -116 3 -105 -5 8 -6 23
-11 33 -11 32 0 18 -18 -44 -55 -33 -21 -58 -39 -56 -42 3 -2 45 10 93 26 103
36 224 44 224 16 0 -57 86 -156 167 -191 74 -33 211 -34 284 -3 27 12 49 25
49 30 0 5 -24 22 -52 39 -69 39 -93 58 -85 66 9 9 116 -6 122 -17 4 -5 15 -9
25 -9 10 0 26 -8 36 -17 16 -16 18 -15 40 12 13 16 27 45 31 65 l9 35 185 12
c101 6 222 18 267 26 97 17 102 13 102 -73 0 -46 -4 -55 -44 -98 -59 -63 -151
-116 -238 -137 -59 -15 -103 -17 -296 -12 -125 3 -243 8 -262 11 -19 3 -73 7
-120 11 -87 5 -102 7 -225 24 -38 6 -101 13 -140 15 l-70 5 60 -13 c108 -25
338 -67 410 -76 325 -41 643 -55 737 -34 32 8 81 25 110 39 28 14 53 25 55 25
8 0 1 -34 -17 -83 -39 -104 -162 -191 -330 -233 -67 -17 -116 -19 -435 -19
-349 0 -362 1 -433 23 -161 51 -231 108 -354 292 -68 101 -95 156 -106 220
-19 104 34 202 133 245 139 61 283 74 805 71 378 -3 444 -5 505 -21z m-4666 5
c136 -22 137 -23 167 -114 15 -45 29 -87 32 -95 4 -11 -11 -12 -87 -6 -102 8
-121 1 -121 -45 0 -34 17 -49 63 -57 l36 -5 -6 -87 c-9 -147 43 -291 106 -291
28 0 61 22 61 40 0 4 -11 33 -25 63 -30 66 -40 134 -31 211 6 46 11 56 27 56
11 0 24 -10 29 -22 5 -13 38 -98 75 -191 63 -161 150 -367 193 -455 11 -23 17
-42 13 -42 -19 0 -105 67 -138 107 -30 37 -41 44 -66 41 -131 -13 42 -215 243
-284 28 -9 43 -26 78 -85 23 -41 42 -79 42 -85 0 -13 -69 -9 -190 12 -278 50
-534 264 -653 546 -58 140 -123 420 -142 609 -7 71 6 121 38 148 47 39 137 49
256 31z m5892 -16 c53 -31 71 -75 64 -159 -22 -254 -113 -585 -201 -731 -135
-224 -360 -386 -594 -428 -90 -16 -200 -27 -200 -20 0 2 19 40 43 84 31 61 48
82 67 87 68 16 177 81 237 141 87 87 96 143 25 150 -25 3 -36 -4 -63 -37 -33
-42 -135 -118 -144 -109 -3 3 8 34 24 69 77 170 167 385 235 567 24 61 31 72
51 72 21 0 25 -6 31 -46 10 -69 -3 -159 -32 -225 -26 -57 -26 -60 -9 -79 36
-40 85 -20 115 45 31 68 43 142 37 230 l-5 82 41 9 c51 12 71 39 54 74 -13 24
-15 25 -110 22 -75 -2 -97 0 -96 10 1 35 58 182 73 190 27 15 142 27 237 24
64 -1 94 -7 120 -22z m-5418 -93 c7 -29 -12 -41 -63 -41 -51 0 -70 12 -63 41
5 16 15 19 63 19 48 0 58 -3 63 -19z m4831 3 c15 -39 8 -45 -51 -42 -55 3 -58
4 -61 31 -3 27 -2 27 51 27 41 0 56 -4 61 -16z m-2358 -165 c49 -13 41 -3 275
-304 124 -160 132 -168 194 -215 62 -46 92 -62 175 -91 64 -23 73 -23 558 -27
542 -4 550 -3 657 58 91 52 138 112 195 245 102 239 95 229 179 284 41 28 77
49 78 47 6 -5 -120 -320 -214 -536 -76 -176 -232 -480 -314 -615 -50 -82 -154
-233 -192 -277 -65 -78 -207 -189 -299 -235 -267 -133 -578 -237 -899 -302
-230 -47 -496 -83 -554 -76 -293 37 -509 77 -685 126 -41 11 -91 24 -110 29
-119 30 -387 133 -527 201 -256 125 -386 267 -621 679 -51 90 -202 392 -202
404 0 3 -12 30 -26 59 -14 28 -32 68 -39 87 -7 19 -32 80 -55 135 -61 146
-121 308 -118 317 2 4 37 -15 80 -43 l76 -50 45 -102 c25 -56 59 -136 76 -177
48 -116 137 -195 268 -239 60 -20 82 -21 530 -21 521 0 555 4 678 64 104 52
157 105 344 345 152 195 174 220 208 229 53 14 185 14 239 1z m-1333 -96 c-7
-2 -21 -2 -30 0 -10 3 -4 5 12 5 17 0 24 -2 18 -5z m2455 0 c-10 -2 -28 -2
-40 0 -13 2 -5 4 17 4 22 1 32 -1 23 -4z m-1713 -2180 c20 -49 43 -101 50
-118 8 -16 23 -51 35 -77 39 -89 39 -92 20 -118 -14 -19 -33 -25 -100 -35 -59
-9 -83 -9 -85 -1 -5 15 -26 278 -28 346 -2 53 -1 55 33 72 19 10 36 18 36 18
1 0 18 -39 39 -87z m1043 59 c18 -12 21 -21 17 -46 -5 -31 -9 -78 -21 -263 -4
-64 -11 -103 -18 -103 -6 0 -45 6 -86 14 -106 20 -119 43 -75 131 13 28 25 53
25 57 0 4 15 40 33 80 18 40 41 92 51 115 19 44 26 45 74 15z m-555 -9 c-7 -2
-19 -2 -25 0 -7 3 -2 5 12 5 14 0 19 -2 13 -5z m-669 -115 c3 -24 10 -108 17
-188 6 -80 13 -151 15 -159 4 -11 20 -12 79 -7 42 4 80 4 85 1 6 -4 -8 -31
-31 -63 -92 -128 -94 -130 -75 -150 25 -29 19 -42 -19 -42 -30 0 -35 4 -40 28
-6 32 -23 101 -39 157 -16 58 -81 151 -116 165 -34 14 -135 5 -187 -16 -18 -8
-33 -12 -33 -8 0 14 68 102 127 165 56 59 183 158 205 159 4 0 9 -19 12 -42z
m1459 -54 c60 -50 136 -137 191 -218 28 -42 35 -65 14 -48 -21 16 -140 42
-193 42 -46 0 -52 -3 -96 -50 -46 -49 -80 -127 -104 -237 -7 -34 -39 -53 -57
-35 -7 7 -6 16 6 27 9 9 16 21 16 26 0 6 -29 51 -65 100 -65 91 -77 116 -52
106 8 -3 43 -8 78 -12 49 -5 67 -4 75 7 10 13 35 251 34 334 0 22 3 44 6 47
10 10 77 -31 147 -89z m-389 -353 c47 -66 86 -124 86 -130 0 -11 -107 -101
-120 -101 -4 0 -10 7 -14 15 -4 12 -24 15 -91 15 -75 0 -85 2 -85 18 0 10 23
72 51 138 27 65 54 129 59 142 5 12 14 22 19 22 5 0 47 -54 95 -119z m-1597
94 c13 -9 25 -31 28 -53 3 -20 12 -57 20 -82 8 -25 17 -68 21 -95 6 -48 4 -52
-20 -63 -23 -10 -26 -18 -26 -57 0 -42 -2 -46 -22 -43 -20 3 -23 10 -26 50 -3
45 -5 48 -36 54 -33 6 -34 7 -50 86 -9 45 -25 96 -36 115 -25 43 -25 51 2 80
17 18 32 23 73 23 29 0 60 -6 72 -15z m914 -95 c22 -52 49 -115 60 -139 13
-28 17 -47 11 -53 -6 -6 -59 -8 -123 -6 -110 3 -115 4 -146 32 -18 16 -33 33
-33 37 0 19 165 230 178 227 7 -2 31 -46 53 -98z m-1251 65 c16 -8 37 -27 48
-43 20 -28 54 -119 67 -179 l7 -33 -85 0 c-104 0 -117 -9 -117 -81 0 -42 -3
-49 -20 -49 -17 0 -20 7 -20 49 0 46 -13 73 -38 83 -13 4 -82 165 -82 189 0
12 10 24 28 30 133 53 165 58 212 34z m2839 -9 l23 -25 -25 -53 c-14 -29 -31
-82 -38 -118 -17 -96 -17 -97 -35 -72 -13 19 -25 22 -80 22 -63 0 -64 0 -64
28 1 15 9 52 20 82 11 30 19 67 20 81 0 15 9 38 21 53 18 23 28 26 78 26 48 0
61 -4 80 -24z m366 -39 c33 -14 61 -32 63 -40 2 -7 -13 -49 -32 -91 l-35 -77
-143 3 -143 3 3 30 c8 69 71 176 117 196 30 13 103 3 170 -24z m-2481 -14 c27
-56 56 -143 56 -168 0 -11 -7 -30 -15 -41 -13 -16 -16 -17 -24 -4 -8 11 -35
16 -109 18 l-98 4 -13 76 c-7 43 -13 85 -14 96 -2 14 11 23 53 37 30 10 76 18
101 18 43 1 46 -1 63 -36z m1746 -6 c34 -14 54 -28 53 -37 -1 -8 -8 -44 -16
-80 l-14 -65 -42 -6 c-23 -3 -46 -10 -52 -16 -6 -6 -12 -42 -13 -80 -1 -66 -2
-68 -26 -68 -24 0 -25 2 -25 75 l0 75 -40 3 c-22 2 -44 7 -48 11 -9 9 24 113
54 173 18 36 22 38 67 38 26 0 72 -11 102 -23z m-2788 -115 c33 -78 34 -77
-63 -74 -121 5 -129 -1 -129 -88 0 -54 -3 -70 -14 -70 -14 0 -36 75 -36 121 0
61 69 128 147 144 32 7 63 10 68 8 6 -2 18 -20 27 -41z m3813 -4 c31 -16 65
-50 65 -65 0 -9 -16 -13 -54 -13 -81 0 -176 12 -176 22 0 5 7 25 15 44 l15 36
57 -7 c32 -4 67 -12 78 -17z m-4327 -186 l3 -53 -128 3 -128 3 -3 44 c-2 28 1
47 10 53 7 4 65 7 128 6 l115 -3 3 -53z m641 44 c7 -9 9 -29 5 -55 l-7 -42
-126 3 -126 3 -3 39 c-6 66 -6 66 126 66 90 0 122 -3 131 -14z m429 5 c9 -5
12 -24 10 -52 l-3 -44 -126 -3 -126 -3 -7 42 c-10 64 -1 69 128 69 61 0 117
-4 124 -9z m440 -4 c6 -7 8 -31 5 -55 l-6 -43 -126 3 -126 3 -3 44 c-2 28 1
47 10 52 22 14 234 11 246 -4z m1161 -1 c7 -9 8 -27 3 -52 l-8 -39 -489 0
-490 0 -3 39 c-6 71 -43 66 491 66 398 0 487 -2 496 -14z m425 1 c14 -10 16
-21 10 -55 l-7 -43 -126 3 -126 3 -6 35 c-10 65 -2 70 124 70 76 0 119 -4 131
-13z m434 4 c9 -5 12 -24 10 -52 l-3 -44 -126 -3 -127 -3 -4 41 c-6 67 -1 70
125 70 62 0 118 -4 125 -9z m450 -49 l3 -53 -128 3 -128 3 -3 39 c-6 67 -6 67
130 64 l123 -3 3 -53z m430 49 c9 -5 12 -24 10 -52 l-3 -44 -125 0 -124 0 -7
35 c-13 64 -3 70 124 70 62 0 118 -4 125 -9z m440 -4 c6 -7 8 -31 5 -55 l-6
-43 -126 3 -126 3 -3 44 c-2 28 1 47 10 52 22 14 234 11 246 -4z m-2060 -54
c-3 -33 -7 -38 -31 -41 -38 -5 -46 22 -17 54 35 36 52 31 48 -13z"/>
<path d="M3315 3808 c-164 -16 -138 -23 84 -23 l220 0 71 -77 c40 -43 77 -78
83 -78 6 0 1 10 -10 23 -28 29 -74 117 -67 128 2 4 20 11 39 15 19 3 35 10 35
15 0 11 -335 9 -455 -3z"/>
<path d="M5230 3811 c0 -5 16 -12 35 -15 19 -4 37 -11 39 -15 7 -11 -39 -99
-67 -128 -11 -13 -16 -23 -10 -23 6 0 43 35 83 78 l71 77 219 0 c121 0 212 3
202 6 -62 23 -572 41 -572 20z"/>
<path d="M3605 3463 c-27 -2 -133 -10 -235 -18 -102 -8 -248 -18 -325 -21 -77
-4 -147 -11 -155 -16 -33 -20 823 8 890 29 45 14 -80 33 -175 26z"/>
<path d="M5280 3463 c-104 -16 -86 -29 52 -38 62 -4 133 -9 158 -11 96 -10
635 -15 620 -6 -8 5 -78 12 -156 16 -78 3 -224 13 -325 21 -237 19 -318 23
-349 18z"/>
<path d="M4322 2537 c-18 -45 -34 -88 -35 -95 -2 -12 145 -101 168 -102 5 0
-17 26 -49 59 l-58 58 7 82 c4 44 5 81 3 81 -2 0 -18 -37 -36 -83z"/>
<path d="M4564 2380 c-38 -15 -38 -30 0 -30 25 0 36 5 36 14 0 20 -11 25 -36
16z"/>
<path d="M4463 1812 c-49 -20 -78 -46 -69 -61 4 -6 20 -1 42 14 43 30 106 40
191 31 50 -5 64 -4 61 6 -11 31 -158 37 -225 10z"/>
<path d="M5502 1614 c-40 -28 -19 -94 30 -94 31 0 48 17 48 50 0 26 -26 60
-46 60 -5 0 -20 -7 -32 -16z"/>
<path d="M4846 423 c-7 -7 62 -83 76 -83 16 0 6 26 -22 58 -30 32 -41 38 -54
25z"/>
</g>
</svg>
